<svg xmlns:rdf="http://www.w3.org/1999/02/22-rdf-syntax-ns#" xmlns="http://www.w3.org/2000/svg" height="416" width="566" version="1.1" xmlns:cc="http://creativecommons.org/ns#" xmlns:xlink="http://www.w3.org/1999/xlink" xmlns:dc="http://purl.org/dc/elements/1.1/">
<defs>
<linearGradient id="lights">
<stop stop-color="#fff" offset="0"/>
<stop stop-color="#0ff" offset=".25"/>
<stop stop-color="#00f" stop-opacity=".5" offset=".5"/>
<stop stop-opacity="0" offset="1"/>
</linearGradient>
<radialGradient id="radialGradient4172" fx="1.48e3" fy="171" xlink:href="#lights" gradientUnits="userSpaceOnUse" cy="71.2" cx="1.53e3" gradientTransform="matrix(.492 0 0 .626 -560 7.61)" r="289"/>
<radialGradient id="radialGradient4172-6" fx="1.63e3" fy="171" xlink:href="#lights" gradientUnits="userSpaceOnUse" cy="71.2" cx="1.53e3" gradientTransform="matrix(.492 0 0 .626 -385 9.67)" r="289"/>
<radialGradient id="radialGradient4217" gradientUnits="userSpaceOnUse" cy="-72.5" cx="208" gradientTransform="matrix(1 0 0 .736 75 262)" r="283">
<stop stop-color="#004" offset="0"/>
<stop offset="1"/>
</radialGradient>
<linearGradient id="linearGradient4210" y2="285" gradientUnits="userSpaceOnUse" y1="285" x2="8.82" x1="-429">
<stop stop-color="#0000b7" offset="0"/>
<stop offset="1"/>
</linearGradient>
</defs>
<rect transform="rotate(-90)" height="574" width="438" y="-1.87" x="-429" fill="url(#linearGradient4210)"/>
<rect height="362" width="284" y="-3.31" x="47.7" fill="url(#radialGradient4172)"/>
<rect height="362" width="284" y="-1.25" x="223" fill="url(#radialGradient4172-6)"/>
<path d="m0.00586 0v180h-0.0059v180h0.875v56.4h19.6v-43.4l18.5 32h13.1l18.5-32v43.4h19.6v-56.4h11.9l27.9 31.3v25h20.7v-25l28.2-31.6c15.5-0.153 25.1-0.353 25.1-0.58 0-0.483-0.675-1.44-1.5-2.12-1.97-1.64-1.89-2.91 0.307-4.88 0.993-0.89 2.42-3.14 3.18-5 1.23-3.03 1.19-3.52-0.367-4.66-1.33-0.969-1.59-2.08-1.1-4.68 1.19-6.35 0.243-6.06 19-5.89h13l1.11 3.75c0.609 2.06 1.03 8.36 0.936 14l-0.123 7.24h-9.71v59.4h34.4c10.7 0 18.6-1.4 23.9-4.21 5.24-2.81 7.85-7.08 7.85-12.8 0-3.74-1.22-6.89-3.66-9.46s-5.88-4.33-10.3-5.29c3.48-0.981 6.13-2.48 7.96-4.49 1.83-2.04 2.74-4.51 2.74-7.4 0-5.49-2.51-9.48-7.53-12-1.08-0.538-2.31-1.01-3.67-1.44 0.388-0.0808 0.654-0.166 0.654-0.258 0-1.59-3.93-3.19-6.11-2.5-2.69 0.854-7.15-0.305-6.32-1.64 0.358-0.579-0.451-2.25-1.8-3.72-4.42-4.82-6.86-14.7-4.12-16.7 2.34-1.71 1.03-6.08-2.95-9.85-1.76-1.67-2.56-2.65-1.79-2.19 1.11 0.659 1.27 0.325 0.756-1.57-0.622-2.3 3.2-22 5.51-28.4 2.35-6.51 2.11-8.81-1.62-16-1.99-3.82-4.05-7.21-4.58-7.54-1.32-0.818-2.16-12.7-0.941-13.5 0.536-0.331 0.975-1.7 0.975-3.04s0.383-2.44 0.85-2.44c0.466 0 1.66-1.8 2.65-4 1.55-3.45 1.72-5.76 1.21-16.8-0.329-7.01-1.52-17-2.64-22.3-1.12-5.22-2.04-11.4-2.05-13.7-0.009-2.3-0.54-5.45-1.18-7-0.641-1.55-1.24-3.04-1.34-3.32-0.0936-0.275-0.458-1.18-0.811-2-0.352-0.825-0.627-3.08-0.613-5 0.0143-1.92-0.268-5.52-0.627-8-0.895-6.18 0.521-4.29 4.49 6 1.8 4.68 4.65 11.4 6.32 15 2.72 5.81 3.05 7.56 3.14 16.5 0.0783 8.18 0.369 10 1.6 10 0.893 0 1.63-1.11 1.82-2.75 0.603-5.24 3.04-3.02 5.48 5 1.48 4.85 2.93 7.86 3.9 8.05 1.78 0.344 3.18-3.03 2.89-6.96-0.107-1.46 0.279-2.95 0.857-3.31 1.67-1.03 1.24-2.97-1.58-7.13-4.17-6.14-8.99-23.8-10.9-39.9-0.384-3.29-2.06-9.73-3.72-14.3l-3.02-8.34 2.12-1.97c2.5-2.32 2.66-4.14 0.646-7.21-0.809-1.24-2.61-6.63-4.01-12-1.39-5.36-3.8-12.6-5.35-16-2.81-6.2-2.85-6.23-12.6-11.1-9.45-4.72-9.76-4.98-9.2-7.75-1-1.9-1-3-2-3-0.674 0-0.496-0.706 0.438-1.75 0.861-0.962 1.89-4 2.28-6.75 0.877-6.13 1.57-7.46 2.56-4.93 0.737 1.88 0.761 1.88 0.904-0.0664 0.0808-1.1 0.321-2.9 0.535-4s0.69-5.87 1.06-10.6c0.635-8.19 0.539-8.79-1.97-12.5-1.45-2.13-2.63-4.39-2.63-5.02 0-2.57-3.09-3.49-11.8-3.53-8.37-0.0398-9.2 0.142-12 2.64-1.66 1.48-3.96 4.88-5.11 7.57-1.83 4.25-4.38 6.94-6.59 6.94-0.919 0-0.0789-10.1 1.55-18.7 1.11-5.86 1.13-7.49 0.104-8.5-1.77-1.74-3.73 1.08-4.56 6.54-1.2 7.94-2.42 7.4-2.42-1.08 0-8.54-0.424-10.2-2.59-10.2-0.933 0-1.51 2.6-2.02 9-0.387 4.95-1.07 9-1.51 9-0.442 0-1.43-3.26-2.2-7.24-1.08-5.64-1.81-7.32-3.27-7.6-1.72-0.332-1.83 0.157-1.29 5.99 0.324 3.49 0.892 7.36 1.26 8.6 1.18 3.94-0.963 2.42-3.87-2.75-1.54-2.75-3.21-5-3.69-5-2.02 0-1.91 2.22 0.395 8.19 1.63 4.23 2.64 9.4 3.07 15.7 0.568 8.47 0.469 9.31-1.03 8.74-1.3-0.5-1.48-0.259-0.85 1.12 0.444 0.969 0.748 3.34 0.678 5.26-0.0704 1.92 0.778 7.87 1.88 13.2 1.11 5.34 1.74 10.6 1.4 11.6-0.336 1.06-0.115 3.89 0.49 6.29s1.35 5.49 1.66 6.87c0.309 1.38 1.12 3.18 1.79 4 2.05 2.49 2.33 4.27 5.54 35.5 0.629 6.12 0.685 11.8 0.143 14.7-0.488 2.56-0.572 6.75-0.186 9.29 0.386 2.55 0.323 8.32-0.143 12.8-1.38 13.4-2.32 28.8-2.1 34.7 0.593 16.3 0.321 21.5-1.71 32.5-1.22 6.6-2.33 12.1-2.47 12.3-0.141 0.144-2.01 0.369-4.15 0.5-3.02 0.185-3.96-0.151-4.23-1.51-0.208-1.07 0.273-1.75 1.23-1.75 0.865 0 1.57-0.476 1.57-1.06 0-0.582 0.447-0.783 0.99-0.447 1.65 1.02-0.16-2.82-2.41-5.11-1.14-1.16-3.57-2.87-5.38-3.8-1.82-0.93-3.55-2.34-3.86-3.13-0.304-0.793-0.922-1.21-1.38-0.932-0.453 0.28-1.11-0.398-1.46-1.51-0.352-1.11-1.29-2.02-2.08-2.02-1.11 0-1.4 1.4-1.3 6.07 0.0755 3.34-0.314 6.52-0.865 7.07-1.55 1.55-0.679-16.1 1.05-21.3 0.906-2.69 1.75-10.9 2.2-21.4 0.398-9.35 1.05-19.1 1.46-21.8 0.465-3 0.367-4.75-0.27-4.75-0.553 0-0.207-0.882 0.77-1.96 1.52-1.68 1.68-3.07 1.08-9.75-0.38-4.28-1.13-9.48-1.66-11.6-0.583-2.26-0.612-4.41-0.0723-5.37 0.665-1.19 1.47 0.581 3.07 6.76 1.19 4.6 3.96 13.2 6.14 19.2 4.57 12.4 4.74 14.3 1.87 19.9-1.15 2.26-2.31 6.52-2.56 9.45-0.393 4.54-0.229 5.25 1.1 4.74 0.859-0.33 1.56-1.65 1.56-2.93-0.00001-1.28 0.45-2.61 1-2.95 1.34-0.827 1.3 6.06-0.043 8.58-0.642 1.2-0.695 2.57-0.139 3.56 0.767 1.37 1.41 1.05 4.29-2.11l3.39-3.73v-10.3c0-5.67-0.27-10.1-0.6-9.94-0.329 0.203-0.868-4.9-1.2-11.3-0.733-14.3-2.09-21-5.81-28.4l-2.86-5.69 2.54-1.99c1.39-1.1 3-2.15 3.57-2.34 1.54-0.512-8.8-21.6-10.9-22.2-0.964-0.284-4.68-0.389-8.25-0.234-6.84 0.296-11-0.612-11-2.4 0-0.588-1.13-2.28-2.5-3.77-1.37-1.48-2.78-4.17-3.11-5.97-0.338-1.8-1.03-3.53-1.55-3.85-0.554-0.343-0.468-1.14 0.213-1.96 0.882-1.06 0.766-1.76-0.5-3.03-1.45-1.45-1.47-1.84-0.182-3.28 0.884-0.985 1.25-2.7 0.938-4.34-0.33-1.71 0.0448-3.28 1.01-4.25 1.98-1.98 2.68-1.94 2.68 0.162 0 1.08 0.346 1.35 0.957 0.74 1.4-1.4-0.445-12.9-2.69-16.7-1.67-2.88-2.41-3.25-7.04-3.52-2.84-0.166-6.08 0.187-7.2 0.783-4.78 2.56-8.03 13.9-8.03 28.1 0 4.96-0.413 9.79-0.916 10.7-0.503 0.94-3.43 3.44-6.5 5.56s-5.58 4.04-5.58 4.28c0 0.435-3.69 19.8-4.61 24.2-0.281 1.35-0.867 2-1.34 1.5-1.17-1.25-3.05-10.7-3.05-15.3 0-3.22 0.388-3.94 2.38-4.44 2.27-0.571 2.36-0.899 1.88-6.97-0.334-4.16-0.122-6.61 0.613-7.07 1.62-0.999 1.39-2.58-0.373-2.58-1.16 0-1.5-1.31-1.5-5.82 0-6.84-0.691-7.68-11.7-14.2-6.8-4.02-12.2-9.34-9.08-8.92 2.99 0.403 3.81-0.203 3.81-2.82 0-1.71 0.79-3.25 2.08-4.06 1.15-0.716 1.84-1.93 1.55-2.69-0.362-0.944-0.0311-1.19 1.04-0.783 1.35 0.519 1.33 0.231-0.168-2.06-1.42-2.17-1.54-3.16-0.621-5.41 1.61-3.93 0.542-18.6-1.46-20.1-2.43-1.75-3.64-4.21-2.67-5.42 1.44-1.79 2.03-8.65 0.789-9.1-0.576-0.212 2.08-3.33 5.91-6.94 5.46-5.14 7.32-6.36 8.65-5.65 1.31 0.703 2.49-0.01 5.29-3.21 1.98-2.26 3.6-3.69 3.6-3.18 0 0.512-0.338 1.37-0.75 1.9-0.412 0.534-0.003 0.173 0.91-0.801 1.69-1.8 3.38-2.45 2.44-0.938-0.283 0.458 0.122 0.834 0.898 0.834 0.777 0 1.18-0.376 0.896-0.834-0.283-0.458 0.159-0.834 0.984-0.834s1.82 0.519 2.21 1.15c0.472 0.764 0.27 0.881-0.596 0.346-0.87-0.538-1.07-0.417-0.59 0.357 0.534 0.864 1.25 0.792 2.77-0.271 1.95-1.37 5.28-1.13 4.39 0.307-1.09 1.76 9.36 0.315 13.5-1.87 0.874-0.459 2.22-0.434 3 0.0566 0.776 0.491 1.86 0.895 2.41 0.895s0.325-0.438-0.5-0.971c-1.22-0.79-1.08-0.995 0.75-1.11 1.24-0.0772 2.59-0.232 3-0.346 5.04-1.39 6.18-1.93 6.64-3.12 0.348-0.908 1.69-1.29 3.82-1.08 1.81 0.175 3.75-0.0258 4.31-0.445 0.871-0.649 6.97-1.81 11.2-2.13 0.688-0.0525 1.25-0.489 1.25-0.973 0-0.483 1.91-0.6 4.25-0.258 8.73 1.28 10.3 1.27 13.5-0.0781 2.41-1.01 3.12-1.05 2.62-0.166-0.504 0.895-0.33 0.884 0.662-0.0371 1.46-1.35 5.37-1.75 4.58-0.463-0.267 0.432 0.35 0.785 1.37 0.785s1.57-0.448 1.24-0.996c-0.338-0.548 1.07 0.00019 3.13 1.22s3.47 1.77 3.14 1.22c-0.351-0.568 0.0468-0.737 0.934-0.396 0.85 0.326 1.25 1.07 0.889 1.66-0.417 0.674-0.0299 0.823 1.06 0.406 0.944-0.362 1.47-0.265 1.18 0.217-0.298 0.481 0.139 1.44 0.971 2.13 1.26 1.05 1.41 0.98 0.877-0.398-0.47-1.23-0.218-1.49 0.973-1.04 0.883 0.339 1.3 1.13 0.918 1.76-0.377 0.63 0.163 0.47 1.2-0.355 1.51-1.2 1.71-1.22 1.03-0.0801-0.642 1.06-0.439 1.26 0.809 0.781 0.989-0.379 1.67-0.144 1.68 0.58 0.0104 0.829 0.297 0.773 0.898-0.176 0.544-0.86 1.58-1.13 2.71-0.697 1.26 0.485 1.46 0.923 0.641 1.43-0.822 0.508-0.553 1.12 0.883 2.02 1.7 1.06 1.93 1.06 1.28-0.0352-0.434-0.728 0.762 0.251 2.66 2.18 2.11 2.14 3.14 3.94 2.65 4.64-0.51 0.731-0.191 1.09 0.881 1 0.923-0.0796 1.87 0.53 2.11 1.36 0.386 1.33 0.314 1.33-0.629 0-0.583-0.825-1.06-0.991-1.07-0.371-0.0195 1.43 2.48 3.55 3.26 2.76 1.14-1.14 2.87 0.726 1.83 1.98-0.657 0.792-0.643 1.69 0.0449 2.66 0.885 1.25 0.965 1.24 0.539-0.115-0.281-0.892 0.0726-1.58 0.811-1.58 0.752 0 1.06 0.638 0.734 1.5-0.404 1.05-0.182 1.25 0.75 0.678 0.806-0.498 1.08-0.428 0.709 0.178-0.339 0.548 0.942 2.51 2.85 4.35 1.9 1.85 3.46 3.83 3.45 4.41-0.008 0.58-0.493 0.378-1.08-0.447-0.829-1.17-0.977-1.19-0.68-0.0879 0.209 0.777 1.17 1.53 2.13 1.67 0.961 0.141 2.91 1.01 4.32 1.94 1.45 0.951 2.23 1.14 1.79 0.426-0.505-0.817-0.372-1.01 0.377-0.545 0.635 0.392 1.19 1.47 1.22 2.4 0.0573 1.38 0.229 1.32 0.93-0.309 0.767-1.79 0.867-1.81 0.93-0.191 0.0387 0.995 0.52 1.53 1.07 1.19s1 0.0681 1 0.906c-0.00001 0.838 0.935 2.02 2.08 2.63 1.14 0.612 1.84 1.73 1.55 2.48-0.305 0.796 0.314 1.64 1.47 2.01 1.53 0.486 1.74 0.948 0.9 1.96-0.808 0.974-0.781 1.52 0.102 2.07 0.813 0.503 0.942 0.319 0.395-0.566-0.535-0.866-0.418-1.07 0.346-0.596 0.635 0.392 1.15 1.5 1.15 2.46-0.00001 2.39 1.92 4.11 3.79 3.39 1.13-0.434 1.31-0.213 0.686 0.828-0.724 1.2-0.6 1.21 0.797 0.082 1.45-1.18 1.6-1.08 1.23 0.838-0.318 1.65-0.117 1.93 0.826 1.14 0.918-0.762 1.24-0.542 1.24 0.838 0 1.03-0.41 1.62-0.912 1.31s-0.464 0.238 0.084 1.22c0.549 0.979 0.79 2.56 0.539 3.52s0.0551 2.06 0.68 2.45c0.83 0.513 0.785 1.13-0.164 2.3-1.09 1.34-1.06 1.46 0.123 0.748 1.06-0.642 1.26-0.441 0.781 0.807-0.351 0.915-0.243 1.66 0.242 1.66 0.484 0 0.668 1.35 0.408 3-0.321 2.04-0.0525 3.01 0.838 3.03 0.8 0.0186 0.621 0.431-0.461 1.06-1.85 1.08-1.48 2.92 0.58 2.89 0.716-0.009 0.593-0.402-0.309-0.984-0.901-0.582-1.03-0.975-0.311-0.984 1.94-0.0249 2.57 1.95 0.844 2.61-1.44 0.552-1.43 0.732 0.0879 1.84 1.23 0.901 1.36 1.43 0.48 1.97-0.928 0.574-0.919 1.08 0.041 2.24 0.682 0.822 1.32 3.14 1.42 5.16 0.0961 2.02 0.51 6.14 0.92 9.17 0.41 3.02 0.769 6.06 0.799 6.75 0.0301 0.688 0.456 1.25 0.947 1.25s0.632 0.422 0.314 0.936c-0.635 1.03-1.75 11.2-1.62 14.9 0.0419 1.28-0.417 3.24-1.02 4.37-0.79 1.49-0.789 1.86 0.01 1.37 0.753-0.466 1.12 1.31 1.16 5.63 0.0317 3.47 0.375 8.11 0.764 10.3 0.581 3.29 1.14 4.05 3.19 4.27 7.39 0.801 9.13 1.36 8.1 2.59-0.568 0.685-1.29 8.2-1.6 16.7-0.602 16.3-0.671 17.3-2.56 36.9-2.15 22.4-2.28 30.5-0.514 31.9 0.86 0.714 1.56 1.93 1.56 2.71 0 0.777 0.643 2.41 1.43 3.63 0.976 1.51 1.28 3.98 0.977 7.71-0.249 3.02-0.54 6.96-0.645 8.75s-0.571 3.25-1.04 3.25c-0.465 0-0.566 0.45-0.227 1 0.34 0.55-0.11 1-1 1s-1.34 0.45-1 1 0.141 1-0.441 1-0.953 0.338-0.824 0.75c0.128 0.412-1.01 1.98-2.52 3.48-2.11 2.08-2.61 3.32-2.13 5.23 0.346 1.38 0.145 4.65-0.445 7.27s-1.19 6.57-1.33 8.77c-0.201 3.14-0.853 4.37-3.03 5.74-2.59 1.62-3.73 5.06-2.03 6.11 0.412 0.255 0.702 3.99 0.641 8.31-0.104 7.4-1.57 12.9-3.87 14.6-0.572 0.411-0.142 0.759 0.979 0.789 1.46 0.0398 1.12 0.438-1.25 1.47-3.22 1.4-3.78 2.66-3.33 7.51 0.357 3.87 2.9 6 7.18 6 2.66 0 4.6 0.747 6.49 2.5 1.69 1.56 3.86 2.49 5.8 2.48 4.13-0.0204 5.62-1.1 5.58-4.04-0.0689-4.57 2.79-20.4 4.5-24.9 1.63-4.31 2.87-16.5 4.06-40 0.292-5.78 0.958-11.8 1.48-13.5 0.521-1.65 1.65-6.02 2.5-9.7 0.856-3.69 2.21-7.96 3.02-9.5 0.802-1.54 1.46-3.57 1.46-4.51 0.003-0.942 0.852-4.09 1.88-7s2.29-6.86 2.79-8.78c1.95-7.52 5.46-4.3 9.48 8.71 1.13 3.66 2.91 8.25 3.96 10.2s1.9 4.75 1.9 6.21c0 2.15 2.07 10.2 4.52 17.6 0.228 0.688-0.247 1.25-1.05 1.25-0.808 0-1.48-0.788-1.5-1.75-0.0265-1.53-0.177-1.5-1.17 0.25-0.628 1.1-1.91 2.55-2.85 3.23-0.941 0.674-2 2.77-2.35 4.65-0.353 1.88-1.64 4.69-2.86 6.24-1.98 2.52-2.23 4.04-2.31 14.4-0.0533 6.34-0.359 12.4-0.68 13.5-0.32 1.1-0.623 2.68-0.674 3.5-0.0816 1.33-0.202 1.33-1.08 0-0.841-1.27-1.29-1.12-2.91 0.982-2.86 3.69-1.06 5.18 5.85 4.81 3.82-0.202 5.51-0.691 5.34-1.54-0.3-1.5 1.37-1.67 2.26-0.232 0.345 0.559 1 0.787 1.46 0.506 0.454-0.281 1.09 0.161 1.4 0.982 0.335 0.873 1.84 1.49 3.62 1.49 3.55 0 6.48 1.51 9.67 5 2.91 3.18 2.95 5.43 0.121 6.69l-2.23 0.994 2.23 1.2c1.23 0.657 2.88 2.75 3.68 4.66 0.876 2.1 2.16 3.48 3.25 3.5 1.36 0.0301 1.14 0.4-0.879 1.5-0.384 0.208-0.813 0.415-1.26 0.611l-0.0801-0.158h-24.7l-29.7 59.4h20.8l5.11-10.8h32.4l5.06 10.8h20.8l-28.5-56.9c7.64 0.123 22 0.227 39.1 0.312v56.6h19.6v-40.7l29.2 40.7h23.1v-56.4l20.3 0.0156v56.4h21.8c12 0 21.1-0.636 27.1-1.91 6.02-1.3 11.2-3.49 15.5-6.56 3.77-2.68 6.56-5.77 8.39-9.27 1.83-3.53 2.74-7.53 2.74-12 0-4.43-0.915-8.39-2.74-11.9-1.83-3.5-4.63-6.59-8.39-9.26-3.22-2.32-6.94-4.13-11.1-5.42l22.6 0.0176v-360h-566zm390 1.46c0.397-0.0416 1.14 0.315 2.54 1.04 1.64 0.85 3.33 1.54 3.75 1.53 0.418-0.0111 0.748 0.766 0.734 1.73-0.0322 2.19 2.38 4.18 5.12 4.22 1.15 0.0175 2.94 1.04 3.97 2.28s1.24 1.69 0.455 1c-0.783-0.688-1.9-1.24-2.47-1.22-1.57 0.0453 2.68 2.34 4.61 2.49 1.09 0.0846 1.54-0.487 1.31-1.68-0.192-1 0.184-1.7 0.842-1.58 0.67 0.129 1.06-0.644 0.896-1.77-0.234-1.61-0.0969-1.71 0.693-0.533 0.655 0.976 0.627 1.9-0.082 2.75-0.711 0.857-0.734 1.7-0.0703 2.53 0.547 0.688 0.867 2.04 0.711 3.01-0.156 0.965 0.0858 1.52 0.539 1.24s0.623-1.8 0.375-3.37c-0.378-2.4-0.116-2.84 1.62-2.75 1.14 0.0634 2.66 1.24 3.37 2.62 0.714 1.38 1.9 2.36 2.63 2.19 1.07-0.246 1.09-0.0104 0.104 1.18-1.01 1.22-0.856 1.69 0.852 2.6 1.15 0.614 2.6 0.797 3.23 0.406 0.762-0.471 0.936-0.153 0.516 0.941-0.391 1.02-0.168 1.56 0.58 1.41 2.54-0.499 1.16 3.76-1.66 5.11-1.58 0.758-2.48 1.66-2 2.01 0.481 0.35 1.49 1.42 2.25 2.38 1.19 1.52 1.15 1.75-0.309 1.75-0.925 0-1.47-0.344-1.21-0.766s-0.613-1.28-1.94-1.91c-1.91-0.901-2.42-0.863-2.42 0.184 0 0.727 0.401 1.47 0.891 1.66 1.87 0.702 10.1 11.8 10 13.5-0.0631 1.63-0.158 1.61-0.93-0.184-0.614-1.43-0.912-1.57-1.05-0.5-0.104 0.825-0.119 1.89-0.0352 2.36 0.0844 0.47-0.32 1.43-0.898 2.12-1.13 1.36-0.345 4.57 1.4 5.73 0.585 0.389 2.08 0.0428 3.32-0.771 2.81-1.84 2.96-0.136 0.223 2.6-1.12 1.12-1.77 2.47-1.44 3 0.328 0.53 0.227 0.963-0.223 0.963s-1.4 0.928-2.11 2.06c-1.15 1.84-1.1 1.97 0.51 1.18 5.38-2.62 6.1 1.76 1.65 10.1-1.77 3.33-2.26 5.16-1.54 5.87 0.568 0.568 0.798 1.64 0.512 2.39-0.286 0.745 0.624 3.4 2.02 5.9s2.16 4.31 1.69 4.02c-0.47-0.291-0.748 0.198-0.617 1.09 0.131 0.889 0.984 2.04 1.9 2.55 1.33 0.743 1.55 0.57 1.09-0.863-0.513-1.62-0.422-1.61 0.982 0.107 0.852 1.04 1.35 2.22 1.11 2.62-0.244 0.395 0.41 1.49 1.45 2.44 1.8 1.63 1.96 1.61 3.09-0.512 1.91-3.57 6.29-6.91 7.62-5.81 1.92 1.59 7.08 2.74 8.03 1.79 0.508-0.508 2.5-0.434 4.71 0.176 2.79 0.771 4.59 0.739 6.66-0.117 2.92-1.21 4.95-0.697 4.95 1.25 0 0.612 0.74 1.93 1.65 2.93 1.58 1.75 1.7 1.72 2.94-0.666 0.71-1.37 1.6-4.63 1.98-7.24 2-6.9 7-15.6 10-15.6 0.936 0 0.516 0.759-1.15 2.07-4.3 3.38-6.04 11.2-5.93 26.8l0.0899 13.4-2.89 1.65c-1.86 1.06-2.9 2.46-2.9 3.92-0.006 2.24-4.17 4.86-5.96 3.76-1.25-0.775-3.57 2.58-5.51 7.97-0.987 2.75-3.04 7.7-4.56 11-4.4 9.56-4.51 10.3-1.55 11.5 3.12 1.19 3.17 2.42 0.482 12.6-1.86 7.05-2.01 9.54-1.4 22.9 0.377 8.25 0.569 17.2 0.43 20-0.41 8.06-0.245 9.4 1.47 12 2.12 3.23 9.08 3.63 10.1 0.58 0.755-2.38-0.936-13.2-2.53-16.2-1.41-2.64-0.753-9.6 1.52-15.9 2.08-5.79 3.4-13.4 4.18-24 0.344-4.68 0.79-8.69 0.992-8.92 0.813-0.921 0.244 12.3-1.14 26.4-1.67 17.1-1.94 34.2-0.545 34.7 1.07 0.377 3.29 16.6 2.91 21.3-0.136 1.67-1.03 3.94-1.99 5.04s-1.66 2.41-1.56 2.9c0.104 0.498-0.701 1.04-1.79 1.2s-2.14 0.764-2.33 1.34c-0.193 0.58-0.796 1.05-1.34 1.05-1.32 0-3.85 2.58-3.85 3.93 0 2.14-4.92 1.57-6.63-0.77-1.1-1.5-1.2-1.47-1.04 0.34 0.133 1.51-0.432 2-2.32 2-1.47 0-2.4-0.517-2.25-1.25 0.138-0.688-0.128-1.25-0.59-1.25-1.52 0-3.16-5.02-3.2-9.8-0.0193-2.59-0.625-8.89-1.35-14-1.24-8.75-1.21-9.35 0.523-10.3 3.32-1.78 5.16-6.77 4.37-11.8-0.395-2.52-0.873-11.8-1.06-20.6-0.379-17.8-0.662-21.2-2.25-27-0.599-2.2-1.37-8.5-1.7-14-0.706-11.5-3.01-24.7-4.98-28.5-0.746-1.44-2.91-3.46-4.81-4.48-4.5-2.43-6.58-6.1-7.79-13.8-1.44-9.17-5.55-22-8.06-25.2-2.82-3.58-7.44-5.44-11.8-4.77-7.51 1.14-10.5 5.69-9.79 14.7 0.248 3 0.146 5.26-0.229 5.03-0.673-0.416-4.98 16.3-5.62 21.8-0.411 3.53-1.21 4.89-2.42 4.14-0.512-0.316-0.932-0.0981-0.932 0.484s-0.626 1.06-1.39 1.06c-0.766 0-1.67 0.712-2 1.58-0.91 2.37-0.704 3.11 0.393 1.42 0.721-1.12 0.944-0.602 0.869 2-0.0554 1.92-0.307 2.71-0.559 1.75-0.252-0.962-0.899-1.75-1.44-1.75-0.542 0-0.709 0.45-0.369 1s0.141 1-0.441 1-1.06-0.562-1.06-1.25c-0.002-2.06-4.83 4.21-5.46 7.09-1.7 7.83-2.23 16.7-1.05 17.4 0.853 0.502 1.45 6.29 1.96 19 0.408 10.2 1.31 20 2.04 22.3 0.717 2.21 1.6 5.81 1.96 8.01 0.359 2.2 1.34 6.12 2.17 8.72 0.836 2.59 1.34 5.97 1.13 7.5-0.345 2.44-0.49 2.27-1.2-1.47-1.12-5.91-2.39-5.31-2.34 1.09 0.0264 2.94-0.49 6.97-1.15 8.96-0.988 2.99-1.68 14.4-2.15 35.4-0.0418 1.87-0.697 3.41-1.6 3.76-0.883 0.339-1.28 1.24-0.936 2.13 0.339 0.883 0.169 1.28-0.396 0.934-0.858-0.53-1.46 1.49-1.11 3.74 0.0622 0.404-0.782 2.2-1.88 4s-2.01 4.39-2.03 5.77h0.002c-0.0215 1.38-0.704 3.62-1.51 5l-1.47 2.5 0.656-3c0.361-1.65 1.26-5.02 2-7.5 1.71-5.75 1.7-7-0.0781-7-1.96 0-3.24 2.27-1.59 2.82 1.19 0.397-4.05 3.18-5.99 3.18-1.34 0-4.98-13.1-4.98-17.8 0-2.48 0.525-5.96 1.17-7.74 0.938-2.59 0.824-5.17-0.58-13.1-0.962-5.41-2.16-15.2-2.66-21.8s-1.57-17.8-2.38-25c-0.811-7.15-1.69-16.9-1.96-21.8-0.453-8.13-0.352-8.75 1.43-8.75 2.15 0 3.62-2.29 5.37-8.37 0.877-3.04 1.78-4.22 3.4-4.45 1.72-0.249 2.21-0.987 2.21-3.33 0-3.77-3.7-24.9-4.91-28.1-1.14-2.99-5.23-5.71-9.65-6.43-1.87-0.304-3.81-1.06-4.32-1.67-0.504-0.617-1.16-5.17-1.46-10.1-0.64-10.7-2.02-19.9-3.57-23.8-2.79-7.09-11.7-14.8-15.5-13.3-2.36 0.907-5.32-1.96-5.41-5.26 0-3.6 0-5 1-5 0.437 0 0.328-2.03-0.24-4.52-0.91-3.98-0.8-4.73 0.916-6.33 1.07-0.999 2.93-1.74 4.12-1.66 1.2 0.0882 1.99-0.146 1.76-0.521-0.232-0.376 0.778-1.23 2.24-1.9 1.95-0.89 2.32-1.43 1.36-2.03-1.02-0.632-1.04-0.902-0.0645-1.23 0.964-0.321 0.933-0.746-0.137-1.87-1.53-1.61-2.17-5.25-0.771-4.38 0.826 0.51 1.32-0.967 0.975-2.91-0.0823-0.464 0.428-0.643 1.13-0.398 0.23 0.08 0.661 0.005 1.2-0.172-0.442 0.0287-0.705-0.828-0.906-2.67-0.134-1.22 0.347-2.08 1.16-2.08 0.956 0 1.07 0.322 0.355 1.03-1.4 1.4-1.31 2.92 0.121 2.04 0.715-0.442 0.884-0.274 0.441 0.441-0.433 0.7-0.773 1.09-1.05 1.2 1.11-0.385 2.68-1.2 4.19-2.23 2.41-1.65 4-2.27 3.68-1.45-0.303 0.789-0.148 1.68 0.344 1.99 1.24 0.765 5.33-0.401 4.74-1.35-0.749-1.21 2.11-3.12 5.97-3.99 2.44-0.551 3.53-0.443 3.54 0.35 0.009 0.644 0.419 0.51 0.936-0.307 0.505-0.799 0.738-1.74 0.52-2.1 0-0.8 15-14.8 17-14.8 0.821 0 1.49 0.689 1.49 1.53 0 1.98 2.66 3 4.29 1.64 0.697-0.578 2.6-1.08 4.24-1.12 5.74-0.138 6.47-0.39 6.47-2.24 0-0.871 0.0481-1.31 0.445-1.35zm-56.9 25.6c-0.0427 0.0148-0.0798 0.0256-0.121 0.0391 0.0382-0.002 0.0801-0.0233 0.121-0.0391zm17-23.8c0.12 0.0201 0.251 0.0713 0.389 0.156 0.55 0.34 1 0.816 1 1.06 0 0.243-0.45 0.441-1 0.441s-1-0.476-1-1.06c0-0.437 0.253-0.658 0.611-0.598zm-16 11.7c0.55 0 1 0.424 1 0.941 0 0.518-0.45 1.22-1 1.56s-1-0.0839-1-0.941 0.45-1.56 1-1.56zm-102 1c-0.0594 0.0248 0.376 0.544 1.25 1.58 0.964 1.14 1.45 2.38 1.08 2.75v0.7c1.71 0 1.42-1.95-0.549-3.62-1.11-0.939-1.67-1.41-1.72-1.38zm110 0c0.55 0 1.28 0.45 1.62 1s0.169 1-0.381 1-1.28-0.45-1.62-1-0.167-1 0.383-1zm17.9 0.188c-0.0895-0.0606-0.315 0.0109-0.664 0.227-0.644 0.398-0.912 1.14-0.596 1.66 0.316 0.512 1.11 0.895 1.77 0.852 0.853-0.0565 0.835-0.223-0.0645-0.586-0.69-0.279-0.959-0.988-0.596-1.58 0.197-0.319 0.244-0.512 0.154-0.572zm-249 0.8c0.275 0-0.315 0.9-1.31 2-0.996 1.1-2.03 2-2.31 2-0.275 0 0.313-0.9 1.31-2 0.996-1.1 2.04-2 2.31-2zm230 2.42c1.89 0.0321 3.44 0.125 3.44 0.205 0 0.0804-1.11 0.872-2.46 1.76-2.3 1.51-2.53 1.49-3.44-0.203-0.856-1.6-0.558-1.81 2.46-1.76zm-96 12.6c-0.585 0.0167-0.265 0.493 0.709 1.06s1.46 1.57 1.09 2.22c-0.374 0.654-0.336 0.877 0.0859 0.498 1-0.904 3.51 1.42 2.79 2.59-0.302 0.497 0.007 0.561 0.688 0.141 0.897-0.554 0.476-1.56-1.53-3.65-1.52-1.59-3.25-2.88-3.83-2.86zm84 5.37c0.102-0.0241 0.193-0.0008 0.27 0.0762 0.308 0.308 0.002 1.11-0.682 1.79-0.988 0.98-1.1 0.865-0.561-0.561 0.282-0.74 0.668-1.24 0.973-1.31zm1 3.6c-0.642 0-0.87 0.296-0.508 0.658s0.156 1.26-0.457 2c-0.7 0.844-0.736 1.34-0.0976 1.34 0.558 0 1.29-0.712 1.62-1.58 0-2.2 0-2.4-1-2.4zm-241 15c0.935 0 1.06 1.2 0.486 4.75-0.422 2.61-0.885 6.17-1.03 7.9-0.144 1.73-0.778 3.98-1.41 5-0.8 1.5-0.9 0.8-0.4-3.6 0.361-3.02 1.01-6.18 1.45-7.01 0.436-0.831 0.556-2.74 0.268-4.25-0.3-1.8-0.1-2.7 0.7-2.7zm336 3c-0.55 0-1 0.675-1 1.5s0.45 1.5 1 1.5 1-0.675 1-1.5-0.45-1.5-1-1.5zm-151 0.326c0.272-0.0721 0.676 0.388 0.961 1.13 0.676 1.76 0.0993 2.07-0.887 0.477-0.362-0.587-0.444-1.28-0.182-1.54 0.0328-0.0328 0.0685-0.0542 0.107-0.0645zm155 0.7c-0.582 0-1.06 0.45-1.06 1s0.199 1 0.441 1 0.719-0.45 1.06-1c0.34-0.55 0.141-1-0.441-1zm-222 0.043 1.61 8.05c0.884 4.43 2.08 8.36 2.67 8.73 1.41 0.894 2.51 6.38 1.56 7.78-1.96 2.89-5.31 3.59-9.37 1.97-3.92-1.57-3.95-1.56-2.84 0.5 0.614 1.15 0.87 2.73 0.57 3.51-0.798 2.08-2.61 1.74-2.61-0.494 0-1.05-0.384-2.07-0.854-2.25-0.47-0.183-1.1-4.05-1.41-8.58-0.303-4.54-0.24-8.06 0.139-7.82 0.379 0.234 0.673-0.764 0.654-2.22-0.0264-2.08 1.02-3.34 4.92-5.9l4.96-3.26zm99.8 20.1c0.189 0.0388 0.529 0.335 1.05 0.84 1.22 1.18 1.38 2.44 0.725 5.93-0.536 2.87-0.445 5.04 0.26 6.17 0.826 1.32 0.642 2.73-0.77 5.86-1.02 2.27-2.16 3.63-2.52 3.04-0.366-0.592-0.731 0.179-0.811 1.71s-0.267 3.86-0.416 5.18c-0.34 2.99-3.75 4.44-5.65 2.39-1.17-1.26-1.07-2.09 0.68-5.63 1.13-2.28 2.37-5.95 2.76-8.15s1.79-5.87 3.12-8.16c1.75-3.02 2.22-4.94 1.74-7-0.374-1.59-0.479-2.25-0.164-2.18zm181 7.27c1.06 0.0744 1.61 2.72 0.691 4.44-0.508 0.948-0.727 4.07-0.488 6.93 0.26 3.12 0.0321 5.2-0.572 5.2-1.26 0-1.37-15.7-0.113-16.4 0.169-0.105 0.331-0.145 0.482-0.135zm-370 75.9c0.664-0.263 0.424 2.83-0.754 12-1.07 8.33-1.02 9.07 0.699 10.3 1.64 1.2 1.71 1.74 0.605 4.79-0.684 1.89-1.51 7.4-1.83 12.2-0.668 9.99-1.22 11.8-3.04 9.78-1.65-1.79-1.91-7.49-0.467-10.2 1.61-2.99 1.49-4-0.736-6.23-2.13-2.13-3-7.81-1.55-10.1 1.61-2.54 5.47-15.1 5.48-17.9 0.008-1.44 0.451-3.29 0.984-4.12 0.249-0.385 0.45-0.625 0.604-0.686zm-8.09 3.24c0.0603 0.005 0.129 0.234 0.201 0.709 0.23 1.52 0.224 3.77-0.0137 5-0.237 1.23-0.428-0.0137-0.418-2.76 0.005-1.89 0.0979-2.96 0.23-2.95zm327 14.3c0.104-0.0653 0.26 0.29 0.477 1.19 0.464 1.92 1.85 7.4 3.08 12.2 1.23 4.76 1.97 9.38 1.63 10.2-1.16 3.01-2.28 1.57-3.55-4.59-1.24-6.03-2.2-18.7-1.64-19zm-322 35.2c0.213 0.0251 0.468 0.158 0.791 0.357 0.614 0.38 0.422 1.74-0.508 3.6-1.95 3.9-2.68 3.8-1.81-0.26 0.619-2.89 0.886-3.77 1.53-3.7zm297 4.59c0.407-0.0378 0.869 0.177 1.51 0.576 1.07 0.665 3.37 4.82 5.12 9.24s4.29 10.2 5.64 13c1.56 3.11 2.52 6.83 2.61 10.1 0.0823 2.88 0.437 5.06 0.789 4.84 0.352-0.212 1.4 1.22 2.33 3.18 1.79 3.76 1.4 7.08-0.672 5.8-0.668-0.413-3.39-0.78-6.04-0.814-3.63-0.0469-5.48 0.498-7.45 2.19-1.44 1.24-2.21 2.26-1.71 2.27 0.498 0.008 0.444 0.346-0.119 0.75s-1.82 1.99-2.79 3.52c-0.974 1.53-2.2 2.51-2.73 2.19-0.526-0.325-0.957-0.0876-0.957 0.527s-0.402 0.869-0.895 0.564c-0.492-0.304-1.15 0.12-1.47 0.941-0.315 0.822-1.64 1.49-2.95 1.49s-3.18 0.891-4.17 1.98c-1.01 1.11-2.86 1.89-4.24 1.78-3.07-0.254-3.73-1.26-1.94-2.93 0.988-0.923 1.12-1.9 0.455-3.35-0.651-1.43-0.433-3.41 0.713-6.51 0.906-2.45 2.51-7.97 3.57-12.3 3.7-15 7.72-26.1 13.2-36.4 0.95-1.78 1.48-2.55 2.16-2.61zm-295 2.48c0.794 0.123 1.02 2.13 1.76 6.87 0.298 1.92 0.212 3.96-0.191 4.51-0.654 0.902-7.42 0.264-12.1-1.14-1.71-0.512-0.923-1.43 1.55-1.79 1.01-0.149 1.86-0.678 1.88-1.18 0.0184-0.498 1.71-2.55 3.76-4.56 1.8-1.77 2.76-2.81 3.38-2.72zm111 18.9c0.0447 0.0175 0.0827 0.0536 0.113 0.109 0.774 1.41 4.13 14.1 5.88 22.3 0.59 2.75 1.03 7.48 0.986 10.5-0.048 3.02 0.222 9.02 0.6 13.3 0.378 4.3 0.369 12.1-0.0195 17.2-0.389 5.18-1.11 9.42-1.61 9.42-0.499 0-0.852-0.338-0.787-0.75 0.355-2.25-0.424-3.16-3.22-3.77-2.81-0.617-3.05-0.963-2.52-3.63 0.412-2.06 0.248-2.74-0.547-2.24-0.625 0.386-1.76-0.151-2.53-1.2-1.2-1.64-1.52-1.69-2.33-0.402-0.52 0.822-0.951 2.28-0.961 3.24-0.008 0.962-0.514 1.75-1.12 1.75-0.609 0-0.87 0.618-0.58 1.37 0.419 1.09-0.364 1.03-3.85-0.287-2.41-0.913-4.64-1.92-4.96-2.24-0.319-0.319-0.097-2.73 0.492-5.36s1.23-8.88 1.42-13.9c0.23-6.03 1.22-12 2.95-17.8 3.22-10.8 11.2-28.3 12.6-27.7zm-44.3 36.1c0.264-0.0464 0.299 0.422 0.314 1.37 0.0183 1.11-0.867 2.57-1.97 3.26-2.55 1.59-2.57 0.139-0.0332-2.91 0.929-1.11 1.42-1.68 1.69-1.72zm-19.3 2.21c0.0909 0.0138 0.199 0.168 0.318 0.467 0.289 0.722 0.254 1.59-0.0781 1.92-0.332 0.332-0.568-0.258-0.525-1.31 0.0299-0.728 0.134-1.1 0.285-1.07zm62 21c-0.55 0-1 0.45-1 1s0.45 1 1 1 1-0.45 1-1-0.45-1-1-1zm-11.9 5c-0.582 0-1.06 0.45-1.06 1s0.199 1 0.441 1 0.719-0.45 1.06-1c0.34-0.55 0.141-1-0.441-1zm156 0.0645c0.921-0.0425 0.876 0.381 0.0898 1.33-1.62 1.96-5.09 2.73-5.09 1.13 0-0.709 1.01-1.56 2.25-1.89 1.3-0.347 2.2-0.541 2.75-0.566zm-23.5 1.2c1.07 0.185 5.47 5.86 5.47 7.2 0 0.719-0.899 1.54-2 1.83-1.1 0.288-1.76 0.135-1.47-0.34 0.293-0.474-0.162-2.53-1.01-4.56-0.85-2.03-1.37-3.87-1.16-4.09 0.0393-0.0393 0.0948-0.0514 0.166-0.0391zm41 13c0.89 0 1.34 0.45 1 1s-0.79 1-1 1-0.66-0.45-1-1 0.11-1 1-1zm-220 2.3c0.203 0.0488 0.416 0.549 0.781 1.54 0.656 1.77 1.6 2.16 5.26 2.16 5.02 0 5.08 0.0857 6.14 9.15l0.662 5.65-7.05 4.6c-7.69 5.02-7.76 5.05-8.64 3.62-0.738-1.19 1.18-5.02 2.52-5.02 0.531 0 0.965-0.844 0.965-1.88 0-1.03 0.687-2.45 1.53-3.14 0.838-0.696 1.29-1.5 1.01-1.78-0.284-0.284-0.0148-1.12 0.598-1.86 0.835-1.01 0.706-1.91-0.516-3.59-0.896-1.24-2.31-3.2-3.14-4.36-0.878-1.22-1.22-2.87-0.824-3.91 0.316-0.822 0.506-1.22 0.709-1.18zm278 1.71c2.46-0.0433 2.75 0.0875 2.2 0.986-0.34 0.55 0.137 1 1.06 1 1.18 0 1.52 0.588 1.15 2-0.288 1.1-0.224 1.82 0.143 1.59 0.366-0.226 1.51 1.33 2.54 3.45 1.15 2.37 2.69 3.98 3.99 4.17 1.87 0.275 1.91 0.394 0.355 1.03-1.2 0.486-2.15 0.0844-2.99-1.26-0.688-1.1-2.34-1.98-3.74-1.99-1.38-0.008-3.03-0.346-3.67-0.752-1.25-0.794-2.21-10.2-1.04-10.2zm-310 4.26c0.0762 0.0197 0.117 0.0765 0.117 0.172 0 0.382-0.675 1.37-1.5 2.19-0.825 0.825-1.5 1.07-1.5 0.551 0-0.522 0.675-1.51 1.5-2.19 0.619-0.514 1.15-0.782 1.38-0.723zm248 0.904c0.359-0.0202 0.752-0.0158 1.16 0.0156 1.65 0.126 3 0.657 3 1.18 0 0.525 0.286 0.669 0.637 0.318 0.35-0.35 1.96 0.301 3.57 1.45 2.22 1.58 4.42 2.08 9.11 2.06 6.22-0.0274 11.1 0.004 17.8 0.113 2.2 0.0361 3.58 0.549 3.58 1.33 0 0.698-0.445 0.996-0.988 0.66-0.567-0.35-0.671-0.0985-0.244 0.592 0.566 0.916 1.08 0.926 2.14 0.041 0.77-0.639 1.11-1.63 0.758-2.2-0.374-0.605-0.161-0.742 0.51-0.328 0.635 0.392 1.15 0.347 1.15-0.102s2.1-0.65 4.67-0.445c3.46 0.275 4.25 0.609 3.04 1.29-0.897 0.502-2.86 0.69-4.36 0.418-2.85-0.516-5.73 1.02-4.79 2.55 0.628 1.02-3.9 1.23-4.89 0.229-0.362-0.362-0.157-1.26 0.455-2 1.15-1.38-0.217-1.92-1.54-0.604-0.923 0.923-3.92 0.987-4.6 0.0977-0.279-0.366-1.63-0.00043-3 0.812-2.2 1.31-2.24 1.43-0.354 1.04 1.18-0.242 2.66-0.115 3.31 0.283 1.86 1.15-3.92 0.871-9.95-0.479-6.67-1.49-8.72-2.27-12.1-4.62-1.44-0.994-2.87-1.55-3.18-1.24-0.854 0.855-6.71-0.647-6.71-1.72 0-0.386 0.76-0.662 1.84-0.723zm109 1.04c0.256 0.0335 0.271 0.529 0.271 1.52 0 1.13-0.659 2.3-1.47 2.61-2.34 0.9-2.67-0.918-0.51-2.87 0.954-0.863 1.45-1.29 1.71-1.26zm-361 3c0.582 0 1.06 0.45 1.06 1s-0.199 1-0.441 1-0.719-0.45-1.06-1c-0.34-0.55-0.141-1 0.441-1zm295 3.75c0.769 0.0705 1.83 0.365 3.24 0.875 2.21 0.798 2.77 1.28 1.5 1.3-1.1 0.0226-2.66-0.378-3.47-0.891v0.002c-0.972-0.615-1.73-0.526-2.23 0.264-0.585 0.921-0.765 0.922-0.777 0.006-0.0151-1.17 0.463-1.68 1.74-1.56zm-11 1c0.518 0 1.17 0.376 1.46 0.834 0.283 0.458-0.141 0.834-0.941 0.834-0.801 0-1.46-0.376-1.46-0.834s0.424-0.834 0.941-0.834zm-281 0.293c0.379 0.0647 0.847 0.419 1.51 1.08 1.41 1.41 1.98 1.48 3.34 0.412 1.46-1.14 1.49-1.09 0.279 0.455-0.75 0.956-1.82 1.45-2.38 1.11-0.645-0.399-0.852 0.525-0.561 2.51 0.254 1.73 0.0896 3.14-0.365 3.14s-0.828-0.675-0.828-1.5-0.397-1.5-0.883-1.5c-1.26 0-2.02-3.54-1.08-5.05 0.306-0.496 0.595-0.721 0.975-0.656zm313 0.256c0.71-0.0548 1.25 0.25 1.25 1.04 0 0.774 0.724 1.41 1.61 1.41 1.05 0 1.4 0.544 1 1.58-0.334 0.87-0.607 2.14-0.607 2.81 0 0.676-0.918 2.21-2.04 3.42-2.66 2.86-4.38 2.77-5.78-0.312-0.924-2.03-1.85-2.5-4.91-2.48-2.8 0.0114-3.39 0.264-2.27 0.984 1.2 0.778 1.22 0.972 0.107 0.984-2.86 0.0315-15.7-4.22-17.1-5.68-1.34-1.36-0.65-1.46 6.5-0.939 4.4 0.318 10.3 0.867 13.1 1.22 4.58 0.575 5.22 0.427 5.78-1.36 0.474-1.49 2.14-2.59 3.32-2.68zm-98.4 2.55c-0.227-0.0804-0.146 0.299 0.193 1.19 0.376 0.986 0.934 1.54 1.24 1.23 0.308-0.308 0.002-1.11-0.682-1.79-0.37-0.368-0.618-0.583-0.754-0.631zm-247 3.19c0.291-0.0259 0.74 0.672 1.07 1.71 0.375 1.18 0.459 2.38 0.184 2.65-0.275 0.275-0.808-0.467-1.18-1.65-0.375-1.18-0.457-2.38-0.182-2.65 0.0344-0.0344 0.0717-0.0529 0.113-0.0566zm337 2.83c0.347 0.0143 0.646 0.107 0.812 0.273 0.332 0.332-0.258 0.569-1.31 0.525-1.16-0.048-1.4-0.286-0.605-0.605 0.361-0.144 0.758-0.208 1.11-0.193zm51 1.82c0.209-0.0216 0.453 0.074 0.707 0.328 0.332 0.332 0.413 1.17 0.182 1.87-0.339 1.02-0.573 1.02-1.2-0.004-0.626-1.01-0.311-2.13 0.314-2.19zm-362 3.28c0.58-0.0361 1.04 0.0263 1.24 0.229 0.302 0.302-0.229 0.549-1.18 0.549-0.949 0-1.45 0.45-1.11 1s-0.309 1-1.44 1-2.06-0.4-2.06-0.891c0-0.781 2.8-1.78 4.54-1.89zm196 6.88c-0.367 0-0.733 0.235-1.2 0.701-0.933 0.933-0.667 1.2 1.2 1.2s2.13-0.266 1.2-1.2c-0.467-0.467-0.834-0.701-1.2-0.701zm-170 1.75-15.8 18.3-15.7-18.2c11.6-0.022 22-0.0579 31.5-0.109zm267 0.0469c8.58 0.0248 17.7 0.0428 27.1 0.0547v37.8l-27.1-37.8zm-394 0h33.2l-16.7 29-16.5-29zm220 7.41h11.5c3.26 0 5.74 0.544 7.42 1.63 1.69 1.06 2.53 2.61 2.53 4.65 0 2.07-0.844 3.63-2.53 4.69s-4.16 1.59-7.42 1.59h-11.5v-12.6zm261 1.15h7.42c8.5 0 15 1.54 19.4 4.61 4.45 3.08 6.67 7.56 6.67 13.4 0 5.91-2.24 10.4-6.72 13.5-4.45 3.1-10.9 4.65-19.4 4.65h-7.42v-36.2zm-166 2.35 11 23.6h-22l11-23.6zm-95.7 19.5h12.2c4.2 0 7.33 0.648 9.41 1.95 2.08 1.27 3.12 3.19 3.12 5.77 0 2.62-1.06 4.59-3.17 5.89-2.08 1.3-5.2 1.95-9.36 1.95h-12.2v-15.5z" fill="url(#radialGradient4217)"/>
</svg>
